<mxfile host="app.diagrams.net" modified="2023-08-02T19:42:12.436Z" agent="Mozilla/5.0 (Windows NT 10.0; Win64; x64) AppleWebKit/537.36 (KHTML, like Gecko) Chrome/114.0.0.0 Safari/537.36" etag="HL7tlxDw75maekBumPkA" version="21.6.6" type="device">
  <diagram name="Page-1" id="FxHzjeEfLcqD2M14GewC">
    <mxGraphModel dx="2441" dy="879" grid="1" gridSize="10" guides="1" tooltips="1" connect="1" arrows="1" fold="1" page="1" pageScale="1" pageWidth="827" pageHeight="1169" math="0" shadow="0">
      <root>
        <mxCell id="0" />
        <mxCell id="1" parent="0" />
        <mxCell id="QUrwGja9dSYK04vVgn_E-1" value="vpc-02" style="points=[[0,0],[0.25,0],[0.5,0],[0.75,0],[1,0],[1,0.25],[1,0.5],[1,0.75],[1,1],[0.75,1],[0.5,1],[0.25,1],[0,1],[0,0.75],[0,0.5],[0,0.25]];outlineConnect=0;gradientColor=none;html=1;whiteSpace=wrap;fontSize=12;fontStyle=0;container=1;pointerEvents=0;collapsible=0;recursiveResize=0;shape=mxgraph.aws4.group;grIcon=mxgraph.aws4.group_vpc;strokeColor=#248814;fillColor=none;verticalAlign=top;align=left;spacingLeft=30;fontColor=#AAB7B8;dashed=0;movable=0;resizable=0;rotatable=0;deletable=0;editable=0;locked=1;connectable=0;" vertex="1" parent="1">
          <mxGeometry x="80" y="90" width="650" height="570" as="geometry" />
        </mxCell>
        <mxCell id="QUrwGja9dSYK04vVgn_E-2" value="AZ 1" style="sketch=0;outlineConnect=0;gradientColor=none;html=1;whiteSpace=wrap;fontSize=12;fontStyle=0;shape=mxgraph.aws4.group;grIcon=mxgraph.aws4.group_availability_zone;strokeColor=#545B64;fillColor=none;verticalAlign=top;align=left;spacingLeft=30;fontColor=#545B64;dashed=1;movable=1;resizable=1;rotatable=1;deletable=1;editable=1;locked=0;connectable=1;" vertex="1" parent="1">
          <mxGeometry x="-30" y="120" width="780" height="240" as="geometry" />
        </mxCell>
        <mxCell id="QUrwGja9dSYK04vVgn_E-3" value="AZ 2" style="sketch=0;outlineConnect=0;gradientColor=none;html=1;whiteSpace=wrap;fontSize=12;fontStyle=0;shape=mxgraph.aws4.group;grIcon=mxgraph.aws4.group_availability_zone;strokeColor=#545B64;fillColor=none;verticalAlign=top;align=left;spacingLeft=30;fontColor=#545B64;dashed=1;movable=1;resizable=1;rotatable=1;deletable=1;editable=1;locked=0;connectable=1;" vertex="1" parent="1">
          <mxGeometry x="-30" y="400" width="780" height="240" as="geometry" />
        </mxCell>
        <mxCell id="QUrwGja9dSYK04vVgn_E-6" value="vpc-02-public-az1" style="points=[[0,0],[0.25,0],[0.5,0],[0.75,0],[1,0],[1,0.25],[1,0.5],[1,0.75],[1,1],[0.75,1],[0.5,1],[0.25,1],[0,1],[0,0.75],[0,0.5],[0,0.25]];outlineConnect=0;gradientColor=none;html=1;whiteSpace=wrap;fontSize=12;fontStyle=0;container=1;pointerEvents=0;collapsible=0;recursiveResize=0;shape=mxgraph.aws4.group;grIcon=mxgraph.aws4.group_security_group;grStroke=0;strokeColor=#248814;fillColor=#E9F3E6;verticalAlign=top;align=left;spacingLeft=30;fontColor=#248814;dashed=0;movable=0;resizable=0;rotatable=0;deletable=0;editable=0;locked=1;connectable=0;" vertex="1" parent="1">
          <mxGeometry x="100" y="140" width="190" height="200" as="geometry" />
        </mxCell>
        <mxCell id="QUrwGja9dSYK04vVgn_E-7" value="vpc-02-public-az2" style="points=[[0,0],[0.25,0],[0.5,0],[0.75,0],[1,0],[1,0.25],[1,0.5],[1,0.75],[1,1],[0.75,1],[0.5,1],[0.25,1],[0,1],[0,0.75],[0,0.5],[0,0.25]];outlineConnect=0;gradientColor=none;html=1;whiteSpace=wrap;fontSize=12;fontStyle=0;container=1;pointerEvents=0;collapsible=0;recursiveResize=0;shape=mxgraph.aws4.group;grIcon=mxgraph.aws4.group_security_group;grStroke=0;strokeColor=#248814;fillColor=#E9F3E6;verticalAlign=top;align=left;spacingLeft=30;fontColor=#248814;dashed=0;movable=0;resizable=0;rotatable=0;deletable=0;editable=0;locked=1;connectable=0;" vertex="1" parent="1">
          <mxGeometry x="100" y="420" width="190" height="200" as="geometry" />
        </mxCell>
        <mxCell id="QUrwGja9dSYK04vVgn_E-8" value="vpc-02-private-az1" style="points=[[0,0],[0.25,0],[0.5,0],[0.75,0],[1,0],[1,0.25],[1,0.5],[1,0.75],[1,1],[0.75,1],[0.5,1],[0.25,1],[0,1],[0,0.75],[0,0.5],[0,0.25]];outlineConnect=0;gradientColor=none;html=1;whiteSpace=wrap;fontSize=12;fontStyle=0;container=1;pointerEvents=0;collapsible=0;recursiveResize=0;shape=mxgraph.aws4.group;grIcon=mxgraph.aws4.group_security_group;grStroke=0;strokeColor=#147EBA;fillColor=#E6F2F8;verticalAlign=top;align=left;spacingLeft=30;fontColor=#147EBA;dashed=0;movable=0;resizable=0;rotatable=0;deletable=0;editable=0;locked=1;connectable=0;" vertex="1" parent="1">
          <mxGeometry x="310" y="140" width="190" height="200" as="geometry" />
        </mxCell>
        <mxCell id="QUrwGja9dSYK04vVgn_E-9" value="vpc-02-private-az2" style="points=[[0,0],[0.25,0],[0.5,0],[0.75,0],[1,0],[1,0.25],[1,0.5],[1,0.75],[1,1],[0.75,1],[0.5,1],[0.25,1],[0,1],[0,0.75],[0,0.5],[0,0.25]];outlineConnect=0;gradientColor=none;html=1;whiteSpace=wrap;fontSize=12;fontStyle=0;container=1;pointerEvents=0;collapsible=0;recursiveResize=0;shape=mxgraph.aws4.group;grIcon=mxgraph.aws4.group_security_group;grStroke=0;strokeColor=#147EBA;fillColor=#E6F2F8;verticalAlign=top;align=left;spacingLeft=30;fontColor=#147EBA;dashed=0;movable=0;resizable=0;rotatable=0;deletable=0;editable=0;locked=1;connectable=0;" vertex="1" parent="1">
          <mxGeometry x="310" y="420" width="190" height="200" as="geometry" />
        </mxCell>
        <mxCell id="QUrwGja9dSYK04vVgn_E-10" value="vpc-02-intra-az1" style="points=[[0,0],[0.25,0],[0.5,0],[0.75,0],[1,0],[1,0.25],[1,0.5],[1,0.75],[1,1],[0.75,1],[0.5,1],[0.25,1],[0,1],[0,0.75],[0,0.5],[0,0.25]];outlineConnect=0;gradientColor=none;html=1;whiteSpace=wrap;fontSize=12;fontStyle=0;container=1;pointerEvents=0;collapsible=0;recursiveResize=0;shape=mxgraph.aws4.group;grIcon=mxgraph.aws4.group_security_group;grStroke=0;strokeColor=#999999;fillColor=#E6E6E6;verticalAlign=top;align=left;spacingLeft=30;fontColor=#999999;dashed=0;movable=0;resizable=0;rotatable=0;deletable=0;editable=0;locked=1;connectable=0;" vertex="1" parent="1">
          <mxGeometry x="520" y="140" width="190" height="200" as="geometry" />
        </mxCell>
        <mxCell id="QUrwGja9dSYK04vVgn_E-11" value="vpc-02-intra-az2" style="points=[[0,0],[0.25,0],[0.5,0],[0.75,0],[1,0],[1,0.25],[1,0.5],[1,0.75],[1,1],[0.75,1],[0.5,1],[0.25,1],[0,1],[0,0.75],[0,0.5],[0,0.25]];outlineConnect=0;gradientColor=none;html=1;whiteSpace=wrap;fontSize=12;fontStyle=0;container=1;pointerEvents=0;collapsible=0;recursiveResize=0;shape=mxgraph.aws4.group;grIcon=mxgraph.aws4.group_security_group;grStroke=0;strokeColor=#999999;fillColor=#E6E6E6;verticalAlign=top;align=left;spacingLeft=30;fontColor=#999999;dashed=0;movable=0;resizable=0;rotatable=0;deletable=0;editable=0;locked=1;connectable=0;" vertex="1" parent="1">
          <mxGeometry x="520" y="420" width="190" height="200" as="geometry" />
        </mxCell>
        <mxCell id="QUrwGja9dSYK04vVgn_E-16" value="" style="group" vertex="1" connectable="0" parent="1">
          <mxGeometry x="560" y="170" width="160" height="420" as="geometry" />
        </mxCell>
        <mxCell id="QUrwGja9dSYK04vVgn_E-18" value="" style="group" vertex="1" connectable="0" parent="QUrwGja9dSYK04vVgn_E-16">
          <mxGeometry width="130" height="420" as="geometry" />
        </mxCell>
        <mxCell id="QUrwGja9dSYK04vVgn_E-14" value="" style="rounded=0;whiteSpace=wrap;html=1;opacity=30;strokeColor=#999999;" vertex="1" parent="QUrwGja9dSYK04vVgn_E-18">
          <mxGeometry width="130" height="420" as="geometry" />
        </mxCell>
        <mxCell id="QUrwGja9dSYK04vVgn_E-15" value="" style="sketch=0;points=[[0,0,0],[0.25,0,0],[0.5,0,0],[0.75,0,0],[1,0,0],[0,1,0],[0.25,1,0],[0.5,1,0],[0.75,1,0],[1,1,0],[0,0.25,0],[0,0.5,0],[0,0.75,0],[1,0.25,0],[1,0.5,0],[1,0.75,0]];outlineConnect=0;fontColor=#232F3E;gradientColor=#4D72F3;gradientDirection=north;fillColor=#3334B9;strokeColor=#ffffff;dashed=0;verticalLabelPosition=bottom;verticalAlign=top;align=center;html=1;fontSize=12;fontStyle=0;aspect=fixed;shape=mxgraph.aws4.resourceIcon;resIcon=mxgraph.aws4.documentdb_with_mongodb_compatibility;" vertex="1" parent="QUrwGja9dSYK04vVgn_E-18">
          <mxGeometry width="40" height="40" as="geometry" />
        </mxCell>
        <mxCell id="QUrwGja9dSYK04vVgn_E-17" value="DocumentDB Cluster" style="text;html=1;strokeColor=none;fillColor=none;align=left;verticalAlign=top;whiteSpace=wrap;rounded=0;fontSize=12;spacing=2;spacingTop=0;" vertex="1" parent="QUrwGja9dSYK04vVgn_E-18">
          <mxGeometry x="40" width="90" height="40" as="geometry" />
        </mxCell>
        <mxCell id="QUrwGja9dSYK04vVgn_E-19" value="DocumentDB&lt;br&gt;primary instance" style="sketch=0;outlineConnect=0;fontColor=default;gradientColor=none;strokeColor=#232F3E;fillColor=none;dashed=0;verticalLabelPosition=bottom;verticalAlign=top;align=center;html=1;fontSize=12;fontStyle=0;aspect=fixed;shape=mxgraph.aws4.resourceIcon;resIcon=mxgraph.aws4.db_instance;" vertex="1" parent="QUrwGja9dSYK04vVgn_E-18">
          <mxGeometry x="35" y="50" width="60" height="60" as="geometry" />
        </mxCell>
        <mxCell id="QUrwGja9dSYK04vVgn_E-24" style="edgeStyle=orthogonalEdgeStyle;rounded=0;orthogonalLoop=1;jettySize=auto;html=1;endArrow=block;endFill=1;" edge="1" parent="1" source="QUrwGja9dSYK04vVgn_E-23">
          <mxGeometry relative="1" as="geometry">
            <mxPoint x="560" y="250" as="targetPoint" />
          </mxGeometry>
        </mxCell>
        <mxCell id="QUrwGja9dSYK04vVgn_E-25" value="tcp/27017" style="edgeLabel;html=1;align=center;verticalAlign=middle;resizable=0;points=[];labelBackgroundColor=default;fontSize=12;" vertex="1" connectable="0" parent="QUrwGja9dSYK04vVgn_E-24">
          <mxGeometry x="-0.1661" relative="1" as="geometry">
            <mxPoint x="17" as="offset" />
          </mxGeometry>
        </mxCell>
        <mxCell id="QUrwGja9dSYK04vVgn_E-26" value="" style="group" vertex="1" connectable="0" parent="1">
          <mxGeometry x="349" y="170" width="130" height="420" as="geometry" />
        </mxCell>
        <mxCell id="QUrwGja9dSYK04vVgn_E-20" value="" style="rounded=0;whiteSpace=wrap;html=1;opacity=30;strokeColor=#999999;" vertex="1" parent="QUrwGja9dSYK04vVgn_E-26">
          <mxGeometry width="130" height="420" as="geometry" />
        </mxCell>
        <mxCell id="QUrwGja9dSYK04vVgn_E-21" value="" style="sketch=0;points=[[0,0,0],[0.25,0,0],[0.5,0,0],[0.75,0,0],[1,0,0],[0,1,0],[0.25,1,0],[0.5,1,0],[0.75,1,0],[1,1,0],[0,0.25,0],[0,0.5,0],[0,0.75,0],[1,0.25,0],[1,0.5,0],[1,0.75,0]];outlineConnect=0;fontColor=#232F3E;gradientColor=#F78E04;gradientDirection=north;fillColor=#D05C17;strokeColor=#ffffff;dashed=0;verticalLabelPosition=bottom;verticalAlign=top;align=center;html=1;fontSize=12;fontStyle=0;aspect=fixed;shape=mxgraph.aws4.resourceIcon;resIcon=mxgraph.aws4.fargate;" vertex="1" parent="QUrwGja9dSYK04vVgn_E-26">
          <mxGeometry width="40" height="40" as="geometry" />
        </mxCell>
        <mxCell id="QUrwGja9dSYK04vVgn_E-22" value="ECS Fargate Cluster" style="text;html=1;strokeColor=none;fillColor=none;align=left;verticalAlign=top;whiteSpace=wrap;rounded=0;fontSize=12;spacing=2;spacingTop=0;" vertex="1" parent="QUrwGja9dSYK04vVgn_E-26">
          <mxGeometry x="40" width="90" height="40" as="geometry" />
        </mxCell>
        <mxCell id="QUrwGja9dSYK04vVgn_E-27" value="" style="rounded=0;whiteSpace=wrap;html=1;opacity=30;strokeColor=#666666;" vertex="1" parent="1">
          <mxGeometry x="140" y="170" width="130" height="420" as="geometry" />
        </mxCell>
        <mxCell id="QUrwGja9dSYK04vVgn_E-36" style="edgeStyle=orthogonalEdgeStyle;shape=connector;rounded=0;orthogonalLoop=1;jettySize=auto;html=1;labelBackgroundColor=default;strokeColor=default;fontFamily=Helvetica;fontSize=11;fontColor=default;endArrow=block;endFill=1;" edge="1" parent="1" source="QUrwGja9dSYK04vVgn_E-28" target="QUrwGja9dSYK04vVgn_E-20">
          <mxGeometry relative="1" as="geometry">
            <Array as="points">
              <mxPoint x="300" y="253" />
              <mxPoint x="300" y="380" />
            </Array>
          </mxGeometry>
        </mxCell>
        <mxCell id="QUrwGja9dSYK04vVgn_E-38" value="http/8080" style="edgeLabel;html=1;align=center;verticalAlign=middle;resizable=0;points=[];fontSize=12;fontFamily=Helvetica;fontColor=default;" vertex="1" connectable="0" parent="QUrwGja9dSYK04vVgn_E-36">
          <mxGeometry x="-0.8205" relative="1" as="geometry">
            <mxPoint x="17" as="offset" />
          </mxGeometry>
        </mxCell>
        <mxCell id="QUrwGja9dSYK04vVgn_E-28" value="ALB Node 1" style="sketch=0;outlineConnect=0;fontColor=#232F3E;gradientColor=none;fillColor=#4D27AA;strokeColor=none;dashed=0;verticalLabelPosition=bottom;verticalAlign=top;align=center;html=1;fontSize=12;fontStyle=0;aspect=fixed;pointerEvents=1;shape=mxgraph.aws4.application_load_balancer;" vertex="1" parent="1">
          <mxGeometry x="180" y="232.75" width="40" height="40" as="geometry" />
        </mxCell>
        <mxCell id="QUrwGja9dSYK04vVgn_E-29" value="Application (L7) Load Balancer" style="text;html=1;strokeColor=none;fillColor=none;align=left;verticalAlign=top;whiteSpace=wrap;rounded=0;fontSize=12;spacing=2;spacingTop=0;" vertex="1" parent="1">
          <mxGeometry x="180" y="170" width="90" height="40" as="geometry" />
        </mxCell>
        <mxCell id="QUrwGja9dSYK04vVgn_E-23" value="Application&lt;br&gt;Container" style="outlineConnect=0;dashed=0;verticalLabelPosition=bottom;verticalAlign=top;align=center;html=1;shape=mxgraph.aws3.ec2_compute_container;fillColor=#F58534;gradientColor=none;" vertex="1" parent="1">
          <mxGeometry x="384" y="232.75" width="60" height="34.5" as="geometry" />
        </mxCell>
        <mxCell id="QUrwGja9dSYK04vVgn_E-31" style="edgeStyle=orthogonalEdgeStyle;rounded=0;orthogonalLoop=1;jettySize=auto;html=1;endArrow=block;endFill=1;" edge="1" parent="1" source="QUrwGja9dSYK04vVgn_E-30" target="QUrwGja9dSYK04vVgn_E-27">
          <mxGeometry relative="1" as="geometry" />
        </mxCell>
        <mxCell id="QUrwGja9dSYK04vVgn_E-33" value="http/80" style="edgeLabel;html=1;align=center;verticalAlign=middle;resizable=0;points=[];fontSize=12;fontFamily=Helvetica;fontColor=default;" vertex="1" connectable="0" parent="QUrwGja9dSYK04vVgn_E-31">
          <mxGeometry x="-0.2261" y="2" relative="1" as="geometry">
            <mxPoint x="1" y="2" as="offset" />
          </mxGeometry>
        </mxCell>
        <mxCell id="QUrwGja9dSYK04vVgn_E-30" value="API Consumer" style="shape=umlActor;verticalLabelPosition=bottom;verticalAlign=top;html=1;outlineConnect=0;labelBackgroundColor=default;" vertex="1" parent="1">
          <mxGeometry x="-120" y="350" width="30" height="60" as="geometry" />
        </mxCell>
        <mxCell id="QUrwGja9dSYK04vVgn_E-34" value="" style="sketch=0;points=[[0,0,0],[0.25,0,0],[0.5,0,0],[0.75,0,0],[1,0,0],[0,1,0],[0.25,1,0],[0.5,1,0],[0.75,1,0],[1,1,0],[0,0.25,0],[0,0.5,0],[0,0.75,0],[1,0.25,0],[1,0.5,0],[1,0.75,0]];outlineConnect=0;fontColor=#232F3E;gradientColor=#945DF2;gradientDirection=north;fillColor=#5A30B5;strokeColor=#ffffff;dashed=0;verticalLabelPosition=bottom;verticalAlign=top;align=center;html=1;fontSize=12;fontStyle=0;aspect=fixed;shape=mxgraph.aws4.resourceIcon;resIcon=mxgraph.aws4.elastic_load_balancing;fontFamily=Helvetica;" vertex="1" parent="1">
          <mxGeometry x="140" y="170" width="40" height="40" as="geometry" />
        </mxCell>
        <mxCell id="QUrwGja9dSYK04vVgn_E-37" style="edgeStyle=orthogonalEdgeStyle;shape=connector;rounded=0;orthogonalLoop=1;jettySize=auto;html=1;entryX=0;entryY=0.5;entryDx=0;entryDy=0;labelBackgroundColor=default;strokeColor=default;fontFamily=Helvetica;fontSize=11;fontColor=default;endArrow=block;endFill=1;" edge="1" parent="1" source="QUrwGja9dSYK04vVgn_E-35" target="QUrwGja9dSYK04vVgn_E-20">
          <mxGeometry relative="1" as="geometry">
            <Array as="points">
              <mxPoint x="300" y="500" />
              <mxPoint x="300" y="380" />
            </Array>
          </mxGeometry>
        </mxCell>
        <mxCell id="QUrwGja9dSYK04vVgn_E-39" value="http/8080" style="edgeLabel;html=1;align=center;verticalAlign=middle;resizable=0;points=[];fontSize=12;fontFamily=Helvetica;fontColor=default;" vertex="1" connectable="0" parent="QUrwGja9dSYK04vVgn_E-37">
          <mxGeometry x="-0.7349" relative="1" as="geometry">
            <mxPoint x="7" as="offset" />
          </mxGeometry>
        </mxCell>
        <mxCell id="QUrwGja9dSYK04vVgn_E-35" value="ALB Node 2" style="sketch=0;outlineConnect=0;fontColor=#232F3E;gradientColor=none;fillColor=#4D27AA;strokeColor=none;dashed=0;verticalLabelPosition=bottom;verticalAlign=top;align=center;html=1;fontSize=12;fontStyle=0;aspect=fixed;pointerEvents=1;shape=mxgraph.aws4.application_load_balancer;" vertex="1" parent="1">
          <mxGeometry x="180" y="480" width="40" height="40" as="geometry" />
        </mxCell>
        <mxCell id="QUrwGja9dSYK04vVgn_E-40" value="AWS Account" style="points=[[0,0],[0.25,0],[0.5,0],[0.75,0],[1,0],[1,0.25],[1,0.5],[1,0.75],[1,1],[0.75,1],[0.5,1],[0.25,1],[0,1],[0,0.75],[0,0.5],[0,0.25]];outlineConnect=0;gradientColor=none;html=1;whiteSpace=wrap;fontSize=12;fontStyle=0;container=1;pointerEvents=0;collapsible=0;recursiveResize=0;shape=mxgraph.aws4.group;grIcon=mxgraph.aws4.group_account;strokeColor=#CD2264;fillColor=none;verticalAlign=top;align=left;spacingLeft=30;fontColor=#CD2264;dashed=0;fontFamily=Helvetica;" vertex="1" parent="1">
          <mxGeometry x="40" y="50" width="750" height="740" as="geometry" />
        </mxCell>
        <mxCell id="QUrwGja9dSYK04vVgn_E-42" value="Elastic Container&lt;br&gt;Registry" style="sketch=0;points=[[0,0,0],[0.25,0,0],[0.5,0,0],[0.75,0,0],[1,0,0],[0,1,0],[0.25,1,0],[0.5,1,0],[0.75,1,0],[1,1,0],[0,0.25,0],[0,0.5,0],[0,0.75,0],[1,0.25,0],[1,0.5,0],[1,0.75,0]];outlineConnect=0;fontColor=#232F3E;gradientColor=#F78E04;gradientDirection=north;fillColor=#D05C17;strokeColor=#ffffff;dashed=0;verticalLabelPosition=bottom;verticalAlign=top;align=center;html=1;fontSize=12;fontStyle=0;aspect=fixed;shape=mxgraph.aws4.resourceIcon;resIcon=mxgraph.aws4.ecr;fontFamily=Helvetica;labelBackgroundColor=default;" vertex="1" parent="QUrwGja9dSYK04vVgn_E-40">
          <mxGeometry x="354" y="650" width="40" height="40" as="geometry" />
        </mxCell>
        <mxCell id="QUrwGja9dSYK04vVgn_E-46" value="Secret Manager" style="sketch=0;points=[[0,0,0],[0.25,0,0],[0.5,0,0],[0.75,0,0],[1,0,0],[0,1,0],[0.25,1,0],[0.5,1,0],[0.75,1,0],[1,1,0],[0,0.25,0],[0,0.5,0],[0,0.75,0],[1,0.25,0],[1,0.5,0],[1,0.75,0]];outlineConnect=0;fontColor=#232F3E;gradientColor=#F54749;gradientDirection=north;fillColor=#C7131F;strokeColor=#ffffff;dashed=0;verticalLabelPosition=bottom;verticalAlign=top;align=center;html=1;fontSize=12;fontStyle=0;aspect=fixed;shape=mxgraph.aws4.resourceIcon;resIcon=mxgraph.aws4.secrets_manager;fontFamily=Helvetica;labelBackgroundColor=default;" vertex="1" parent="QUrwGja9dSYK04vVgn_E-40">
          <mxGeometry x="450" y="651" width="39" height="39" as="geometry" />
        </mxCell>
        <mxCell id="QUrwGja9dSYK04vVgn_E-44" style="edgeStyle=orthogonalEdgeStyle;shape=connector;rounded=0;orthogonalLoop=1;jettySize=auto;html=1;labelBackgroundColor=default;strokeColor=default;fontFamily=Helvetica;fontSize=11;fontColor=default;endArrow=block;endFill=1;" edge="1" parent="1" source="QUrwGja9dSYK04vVgn_E-20" target="QUrwGja9dSYK04vVgn_E-42">
          <mxGeometry relative="1" as="geometry" />
        </mxCell>
        <mxCell id="QUrwGja9dSYK04vVgn_E-47" style="edgeStyle=orthogonalEdgeStyle;shape=connector;rounded=0;orthogonalLoop=1;jettySize=auto;html=1;exitX=0.75;exitY=1;exitDx=0;exitDy=0;entryX=0.5;entryY=0;entryDx=0;entryDy=0;entryPerimeter=0;labelBackgroundColor=default;strokeColor=default;fontFamily=Helvetica;fontSize=11;fontColor=default;endArrow=block;endFill=1;" edge="1" parent="1" source="QUrwGja9dSYK04vVgn_E-20" target="QUrwGja9dSYK04vVgn_E-46">
          <mxGeometry relative="1" as="geometry" />
        </mxCell>
        <mxCell id="QUrwGja9dSYK04vVgn_E-53" style="edgeStyle=orthogonalEdgeStyle;shape=connector;rounded=0;orthogonalLoop=1;jettySize=auto;html=1;labelBackgroundColor=default;strokeColor=default;fontFamily=Helvetica;fontSize=11;fontColor=default;endArrow=block;endFill=1;entryX=0;entryY=0.5;entryDx=0;entryDy=0;entryPerimeter=0;exitX=0.5;exitY=0;exitDx=0;exitDy=0;" edge="1" parent="1" source="QUrwGja9dSYK04vVgn_E-51" target="QUrwGja9dSYK04vVgn_E-42">
          <mxGeometry relative="1" as="geometry" />
        </mxCell>
        <mxCell id="QUrwGja9dSYK04vVgn_E-51" value="GitHub Repository&lt;br&gt;with Actions" style="shape=image;html=1;verticalAlign=top;verticalLabelPosition=bottom;labelBackgroundColor=#ffffff;imageAspect=0;aspect=fixed;image=https://cdn0.iconfinder.com/data/icons/long-shadow-web-icons/512/github-128.png;fontFamily=Helvetica;fontSize=11;fontColor=default;" vertex="1" parent="1">
          <mxGeometry x="309" y="830" width="40" height="40" as="geometry" />
        </mxCell>
      </root>
    </mxGraphModel>
  </diagram>
</mxfile>
